<?xml version="1.0" standalone="no"?>
<!DOCTYPE svg PUBLIC "-//W3C//DTD SVG 20010904//EN"
 "http://www.w3.org/TR/2001/REC-SVG-20010904/DTD/svg10.dtd">
<svg version="1.0" xmlns="http://www.w3.org/2000/svg"
 width="550.000000pt" height="550.000000pt" viewBox="0 0 550.000000 550.000000"
 preserveAspectRatio="xMidYMid meet">
<metadata>
Created by potrace 1.14, written by Peter Selinger 2001-2017
</metadata>
<g transform="translate(0.000000,550.000000) scale(0.100000,-0.100000)"
fill="#000000" stroke="none">
<path d="M2559 5496 c-2 -2 -35 -6 -74 -10 -38 -3 -81 -8 -95 -10 -14 -2 -50
-7 -80 -11 -30 -4 -58 -9 -61 -11 -4 -2 -24 -6 -45 -10 -22 -3 -57 -10 -79
-16 -22 -6 -47 -12 -55 -13 -8 -2 -15 -4 -15 -5 0 -1 -7 -3 -15 -5 -8 -1 -35
-9 -60 -16 -25 -7 -47 -13 -50 -14 -80 -18 -501 -199 -520 -223 -3 -4 -25 -18
-50 -31 -86 -46 -265 -168 -341 -234 -159 -136 -240 -214 -329 -316 -30 -35
-60 -69 -65 -75 -6 -6 -24 -29 -40 -51 -17 -22 -32 -42 -36 -45 -5 -5 -84
-119 -106 -156 -106 -171 -147 -248 -228 -428 -17 -38 -93 -247 -101 -276 -2
-8 -8 -33 -14 -55 -73 -276 -93 -435 -94 -730 -1 -183 6 -310 19 -375 3 -14 8
-45 11 -69 8 -68 51 -257 80 -351 55 -182 167 -440 261 -600 30 -52 135 -213
143 -220 3 -3 25 -32 50 -65 24 -33 49 -65 55 -71 5 -6 34 -39 64 -74 89 -102
210 -219 306 -295 28 -22 55 -45 60 -51 33 -36 371 -254 395 -254 5 0 10 -4
10 -10 0 -5 5 -10 11 -10 7 0 41 -15 78 -34 64 -32 291 -126 315 -130 6 -1 16
-4 21 -7 6 -3 33 -12 60 -18 28 -7 57 -15 65 -18 8 -4 20 -7 25 -8 6 -2 39
-11 75 -20 36 -9 80 -19 99 -21 19 -3 37 -7 42 -9 4 -3 32 -8 62 -10 30 -3 65
-8 78 -11 117 -25 566 -25 719 -1 14 3 45 8 70 11 61 10 90 15 120 21 43 10
64 15 85 19 11 2 40 10 65 17 57 16 61 17 85 23 11 2 61 19 110 37 50 17 96
32 103 32 6 0 12 4 12 8 0 4 12 10 26 13 26 7 291 134 329 158 11 7 39 25 63
41 24 15 45 27 48 27 2 0 41 26 85 57 45 32 91 65 102 73 75 50 265 225 372
341 92 100 265 328 265 348 0 5 4 11 9 13 15 5 141 234 196 356 57 127 137
353 160 457 2 6 8 28 13 50 6 22 14 56 17 75 3 19 10 60 15 90 19 108 21 124
26 169 10 80 12 473 3 546 -17 143 -25 196 -34 245 -3 14 -7 34 -9 45 -3 11
-10 43 -16 70 -6 28 -14 61 -16 74 -10 52 -104 321 -144 411 -122 277 -287
532 -480 743 -63 69 -158 167 -163 167 -2 0 -25 21 -53 46 -81 76 -359 284
-379 284 -3 0 -28 15 -57 34 -78 49 -386 196 -412 196 -7 0 -16 3 -20 8 -4 4
-11 7 -14 7 -4 0 -27 7 -52 16 -61 22 -115 39 -137 44 -10 3 -36 9 -58 15 -22
6 -51 13 -65 16 -14 3 -32 7 -40 9 -8 2 -28 7 -45 10 -16 2 -41 7 -55 11 -14
3 -38 7 -55 10 -16 2 -50 6 -75 10 -25 3 -56 8 -70 10 -31 5 -476 14 -481 10z"/>
</g>
</svg>
