<?xml version="1.0" standalone="no"?>
<!DOCTYPE svg PUBLIC "-//W3C//DTD SVG 20010904//EN"
 "http://www.w3.org/TR/2001/REC-SVG-20010904/DTD/svg10.dtd">
<svg version="1.0" xmlns="http://www.w3.org/2000/svg"
 width="3000.000000pt" height="3000.000000pt" viewBox="0 0 3000.000000 3000.000000"
 preserveAspectRatio="xMidYMid meet">
<metadata>
Created by potrace 1.14, written by Peter Selinger 2001-2017
</metadata>
<g transform="translate(0.000000,3000.000000) scale(0.100000,-0.100000)"
fill="#000000" stroke="none">
<path d="M14710 23258 c-578 -49 -1162 -263 -1628 -595 -211 -151 -440 -360
-602 -548 -670 -781 -937 -1819 -730 -2835 235 -1147 1085 -2102 2199 -2469
80 -27 199 -61 264 -76 l117 -28 0 -183 c0 -212 12 -263 77 -326 63 -60 96
-72 213 -78 l105 -5 0 -714 0 -714 -105 -23 c-317 -72 -609 -225 -827 -437
-47 -46 -54 -49 -65 -34 -37 48 -1044 1246 -1049 1246 -9 1 -399 -329 -399
-338 0 -4 532 -642 1181 -1416 1092 -1301 1181 -1410 1169 -1429 -7 -11 -539
-647 -1182 -1414 -643 -766 -1168 -1398 -1166 -1403 2 -5 91 -83 198 -173
l195 -165 26 27 c15 15 250 295 524 622 274 327 501 599 505 603 4 5 36 -17
69 -49 186 -175 421 -312 660 -388 70 -22 121 -35 249 -62 l22 -4 0 -723 0
-724 -101 -28 c-127 -35 -310 -125 -420 -206 -212 -156 -377 -379 -469 -636
l-23 -63 -743 0 -744 0 0 -370 0 -370 2705 0 2705 0 0 370 0 370 -686 2 -686
3 -28 75 c-69 190 -162 334 -314 486 -181 182 -405 308 -639 358 l-27 6 2 727
3 726 87 18 c283 57 576 206 805 408 l91 79 29 -31 c29 -31 1012 -1202 1024
-1220 6 -8 400 314 407 332 1 4 -531 643 -1183 1420 l-1185 1412 237 282 c130
155 662 789 1182 1410 520 620 947 1131 949 1135 1 5 -88 84 -198 177 -170
142 -203 166 -214 154 -7 -8 -246 -292 -530 -631 l-517 -617 -92 80 c-235 206
-524 352 -804 406 l-93 18 0 718 0 717 98 0 c141 1 215 40 270 144 26 49 27
57 30 247 l4 196 127 31 c459 114 913 339 1286 638 126 101 358 329 462 454
740 889 964 2094 594 3191 -118 352 -317 714 -557 1014 -169 212 -435 461
-674 632 -618 441 -1417 657 -2190 591z m521 -929 c941 -95 1732 -732 2030
-1633 161 -487 156 -1026 -14 -1521 -252 -733 -859 -1306 -1607 -1516 -110
-31 -304 -69 -352 -69 l-28 0 0 535 c0 467 2 535 15 535 8 0 59 14 112 31 472
150 808 527 910 1019 22 105 24 360 4 470 -92 514 -479 933 -976 1058 -256 65
-536 53 -775 -33 -436 -158 -757 -527 -856 -985 -23 -107 -26 -398 -5 -505 20
-101 73 -260 116 -346 123 -246 347 -474 584 -594 78 -39 217 -91 284 -106
l57 -12 0 -535 0 -535 -67 7 c-222 22 -533 122 -772 247 -677 354 -1131 991
-1258 1764 -22 138 -25 532 -5 670 105 702 478 1292 1058 1675 291 193 658
329 989 369 50 6 101 13 115 15 58 8 346 5 441 -5z m-501 -8751 l0 -573 -24
25 c-13 14 -160 187 -326 385 l-302 360 73 68 c136 126 300 223 469 278 47 16
91 28 98 29 9 0 12 -121 12 -572z m640 542 c117 -38 253 -108 349 -180 80 -60
181 -153 181 -167 0 -7 -586 -712 -626 -753 -12 -12 -14 63 -14 558 0 337 4
572 9 572 5 0 51 -14 101 -30z m-645 -3729 c-10 -9 -159 40 -251 83 -120 57
-230 133 -322 221 l-75 71 324 386 324 386 3 -570 c1 -314 0 -574 -3 -577z
m852 772 c170 -203 312 -374 317 -380 10 -18 -14 -48 -92 -117 -83 -73 -195
-147 -287 -190 -64 -31 -222 -86 -246 -86 -5 0 -9 217 -9 570 0 314 2 570 4
570 3 0 144 -165 313 -367z"/>
<path d="M12687 16729 c340 -445 393 -515 393 -521 0 -4 -56 -9 -125 -10
l-126 -3 473 -335 c260 -184 511 -362 558 -395 l85 -59 -29 39 c-17 22 -130
172 -253 333 -123 161 -223 295 -223 297 0 3 58 6 129 7 l129 3 -550 390
c-303 215 -555 392 -560 394 -6 2 39 -61 99 -140z"/>
<path d="M16847 16486 c-295 -210 -543 -388 -549 -394 -9 -9 17 -12 115 -12
70 0 127 -2 127 -5 0 -4 -320 -428 -494 -654 -15 -20 25 8 598 414 l507 360
-126 3 c-70 1 -125 7 -123 12 3 8 50 71 352 468 81 105 143 192 139 191 -4 0
-250 -173 -546 -383z"/>
</g>
</svg>
